<?xml version="1.0" standalone="no"?>
<!DOCTYPE svg PUBLIC "-//W3C//DTD SVG 20010904//EN"
 "http://www.w3.org/TR/2001/REC-SVG-20010904/DTD/svg10.dtd">
<svg version="1.0" xmlns="http://www.w3.org/2000/svg"
 width="512.000000pt" height="512.000000pt" viewBox="0 0 512.000000 512.000000"
 preserveAspectRatio="xMidYMid meet">
<metadata>
Created by potrace 1.11, written by Peter Selinger 2001-2013
</metadata>
<g transform="translate(0.000000,512.000000) scale(0.100000,-0.100000)"
fill="#000000" stroke="none">
<path d="M1292 5106 c-54 -19 -128 -86 -157 -144 -64 -123 -26 -268 109 -416
70 -77 59 -110 -60 -167 -97 -47 -115 -65 -121 -121 -6 -68 36 -123 104 -134
65 -10 233 81 300 162 105 129 87 285 -49 432 -41 45 -68 92 -68 121 0 12 17
32 44 51 63 42 77 91 45 156 -28 58 -85 81 -147 60z"/>
<path d="M2300 5110 c-42 -12 -107 -57 -136 -94 -45 -56 -63 -115 -60 -193 5
-95 40 -169 125 -263 18 -19 39 -48 47 -64 15 -27 14 -31 -3 -55 -11 -14 -55
-44 -100 -65 -89 -44 -116 -74 -116 -136 0 -46 25 -84 69 -105 44 -21 77 -15
169 28 67 32 110 64 168 122 71 72 87 224 33 321 -15 28 -47 73 -72 100 -24
27 -54 68 -65 92 -20 41 -20 44 -4 62 10 11 25 22 34 25 9 3 27 21 40 40 40
59 17 152 -44 175 -42 15 -61 18 -85 10z"/>
<path d="M3265 5096 c-138 -65 -200 -216 -150 -361 20 -56 58 -116 121 -189
23 -27 45 -58 48 -69 7 -27 -34 -62 -122 -105 -81 -39 -101 -62 -108 -119 -9
-74 59 -137 137 -128 51 7 171 69 226 119 104 94 136 212 88 329 -13 32 -35
72 -49 90 -80 98 -106 137 -112 164 -6 29 -2 34 36 58 49 31 75 82 65 132 -7
37 -58 93 -86 93 -9 0 -23 2 -31 5 -7 3 -35 -6 -63 -19z"/>
<path d="M2107 3874 c-1 -1 -128 -4 -282 -8 -154 -4 -305 -8 -335 -10 -30 -3
-111 -7 -180 -10 -215 -11 -313 -21 -451 -47 -276 -51 -413 -134 -463 -283
-14 -42 -16 -86 -11 -345 3 -163 7 -330 9 -371 7 -141 18 -335 21 -370 2 -19
6 -80 10 -135 4 -55 8 -115 10 -134 3 -18 7 -65 10 -105 21 -270 49 -388 134
-561 134 -273 350 -496 595 -615 55 -27 128 -56 161 -65 77 -20 322 -62 400
-70 33 -3 80 -7 105 -10 277 -26 670 -22 955 11 157 18 374 60 462 89 254 85
522 327 673 608 44 82 47 83 115 67 63 -16 194 -13 255 6 205 61 417 275 589
593 28 52 51 95 51 97 0 2 13 33 30 68 31 68 97 252 104 289 2 12 9 40 14 62
21 76 24 101 28 225 10 324 -115 479 -441 549 -80 17 -148 22 -340 26 l-180 3
-2 29 c-4 89 -56 183 -130 237 -78 57 -228 103 -393 120 -30 4 -73 8 -95 11
-61 7 -173 14 -485 30 -212 11 -935 25 -943 19z m868 -418 c44 -3 132 -8 195
-10 117 -6 229 -13 310 -21 57 -6 152 -17 165 -20 6 -1 31 -5 58 -10 33 -5 47
-12 48 -24 3 -91 -7 -449 -16 -621 -15 -262 -24 -400 -30 -465 -2 -22 -7 -80
-10 -130 -4 -49 -8 -101 -10 -115 -2 -14 -7 -54 -10 -90 -22 -255 -201 -532
-440 -682 -74 -47 -234 -90 -420 -113 -27 -4 -61 -8 -75 -11 -150 -25 -818
-25 -945 0 -11 2 -46 7 -79 11 -135 16 -291 51 -352 79 -208 95 -427 363 -483
591 -14 55 -19 87 -27 180 -4 44 -8 94 -10 110 -1 17 -5 68 -9 115 -4 47 -8
101 -10 120 -2 19 -7 85 -10 145 -4 61 -8 135 -10 165 -6 83 -15 354 -20 542
l-4 168 38 10 c62 16 127 28 259 45 90 12 225 20 512 30 113 4 207 9 209 11 6
6 1084 -3 1176 -10z m1679 -457 c55 -20 81 -59 79 -118 -2 -77 -66 -308 -123
-446 -31 -76 -124 -259 -155 -305 -105 -154 -189 -220 -280 -220 -96 0 -97 2
-90 89 3 42 8 101 11 131 7 67 11 115 19 245 3 55 8 118 10 140 4 35 14 224
20 385 1 30 3 67 4 82 1 34 10 35 271 33 143 -1 205 -5 234 -16z"/>
<path d="M1196 3049 c-50 -14 -104 -59 -127 -106 -27 -55 -28 -155 -4 -403 2
-25 7 -74 10 -110 4 -36 8 -76 10 -90 4 -26 23 -193 30 -270 16 -154 23 -187
56 -280 71 -196 266 -374 409 -374 116 0 201 81 202 195 0 56 -30 128 -65 153
-12 8 -44 30 -72 48 -39 26 -57 47 -82 98 -31 62 -35 82 -48 215 -3 33 -8 71
-10 85 -2 14 -7 57 -11 95 -3 39 -8 77 -9 86 -2 9 -6 52 -10 95 -4 43 -8 93
-10 109 -2 17 -7 89 -10 160 -7 151 -22 201 -72 245 -54 48 -124 66 -187 49z"/>
<path d="M155 472 c-94 -16 -155 -55 -155 -99 0 -36 43 -89 92 -114 95 -48
300 -110 463 -139 39 -7 79 -14 90 -16 11 -2 40 -7 65 -10 25 -3 53 -8 64 -10
10 -2 44 -6 75 -9 31 -4 67 -8 80 -10 13 -3 61 -7 105 -10 45 -4 92 -8 106
-11 14 -2 70 -6 125 -9 55 -3 126 -8 159 -10 229 -18 992 -24 1361 -11 246 8
486 21 570 31 17 2 66 6 110 10 44 4 91 8 105 10 14 2 43 6 65 9 22 3 60 8 85
11 272 35 573 114 688 181 45 26 82 75 82 107 0 29 -52 74 -101 88 -35 10
-485 13 -2129 13 -1147 1 -2095 0 -2105 -2z"/>
</g>
</svg>
